<svg width="90" height="90" viewBox="0 0 90 90" fill="none" xmlns="http://www.w3.org/2000/svg">
<g clip-path="url(#clip0_304_204)">
<path d="M42.0076 0.0703394C41.8143 0.0879158 41.1991 0.149433 40.6454 0.193374C27.8762 1.34463 15.9154 8.23458 8.34001 18.8244C4.12167 24.7125 1.42369 31.3915 0.404257 38.466C0.043941 40.9355 0 41.6649 0 45.0132C0 48.3615 0.043941 49.0909 0.404257 51.5604C2.84738 68.4426 14.8609 82.6267 31.1542 87.8821C34.0719 88.8224 37.1477 89.464 40.6454 89.8506C42.0076 90 47.8957 90 49.2579 89.8506C55.2954 89.1827 60.4101 87.6887 65.4545 85.1138C66.2279 84.7183 66.3773 84.6129 66.2718 84.525C66.2015 84.4722 62.906 80.0518 58.9513 74.7086L51.7625 64.9976L42.7546 51.6659C37.7981 44.3365 33.7203 38.343 33.6852 38.343C33.65 38.3342 33.6149 44.2574 33.5973 51.4901C33.5709 64.1539 33.5622 64.6636 33.404 64.9624C33.1755 65.3931 32.9997 65.5688 32.6306 65.7622C32.3494 65.9028 32.1033 65.9291 30.7763 65.9291H29.2559L28.8517 65.6743C28.588 65.5073 28.3947 65.2876 28.2629 65.0327L28.0783 64.6373L28.0959 47.0169L28.1223 29.3878L28.3947 29.045C28.5353 28.8605 28.8341 28.6232 29.045 28.509C29.4053 28.3332 29.5459 28.3156 31.0663 28.3156C32.8591 28.3156 33.1579 28.3859 33.6237 28.8956C33.7555 29.0363 38.6329 36.3832 44.4683 45.2329C50.3037 54.0826 58.2834 66.1664 62.2029 72.0985L69.3214 82.8816L69.6817 82.6443C72.8718 80.5703 76.2465 77.6174 78.9181 74.5416C84.604 68.0119 88.2687 60.0498 89.4991 51.5604C89.8594 49.0909 89.9033 48.3615 89.9033 45.0132C89.9033 41.6649 89.8594 40.9355 89.4991 38.466C87.056 21.5839 75.0425 7.3997 58.7491 2.14436C55.8754 1.21281 52.8171 0.571267 49.3897 0.184586C48.546 0.096704 42.737 3.38107e-05 42.0076 0.0703394ZM60.4101 27.261C60.832 27.472 61.1747 27.8762 61.2977 28.298C61.368 28.5265 61.3856 33.4128 61.368 44.4244L61.3417 60.2256L58.5558 55.9545L55.7612 51.6835V40.1973C55.7612 32.7712 55.7963 28.5968 55.849 28.3947C55.9897 27.9026 56.2972 27.5159 56.7191 27.2874C57.0794 27.1029 57.2112 27.0853 58.591 27.0853C59.8916 27.0853 60.1201 27.1029 60.4101 27.261Z" fill="black"/>
<path d="M68.9301 83.0749C68.6225 83.2683 68.5259 83.4001 68.7983 83.2507C68.9916 83.1364 69.308 82.8992 69.2553 82.8904C69.2289 82.8904 69.0795 82.9783 68.9301 83.0749ZM68.3237 83.4704C68.1655 83.5934 68.1655 83.6022 68.3589 83.5056C68.4643 83.4528 68.5522 83.3913 68.5522 83.3737C68.5522 83.3034 68.5083 83.321 68.3237 83.4704ZM67.8843 83.734C67.7261 83.8571 67.7261 83.8659 67.9195 83.7692C68.0249 83.7165 68.1128 83.655 68.1128 83.6374C68.1128 83.5671 68.0689 83.5846 67.8843 83.734ZM67.4449 83.9977C67.2867 84.1207 67.2867 84.1295 67.4801 84.0328C67.5855 83.9801 67.6734 83.9186 67.6734 83.901C67.6734 83.8307 67.6295 83.8483 67.4449 83.9977ZM66.777 84.3492C66.4431 84.525 66.4606 84.5953 66.7946 84.4283C66.944 84.3492 67.0582 84.2701 67.0582 84.2526C67.0582 84.191 67.0494 84.1998 66.777 84.3492Z" fill="black"/>
</g>
<defs>
<clipPath id="clip0_304_204">
<rect width="90" height="90" fill="white"/>
</clipPath>
</defs>
</svg>
