<svg width="95" height="86" viewBox="0 0 95 86" fill="none" xmlns="http://www.w3.org/2000/svg">
<path d="M95 43.1347C95 36.8413 87.1188 30.8772 75.0357 27.1787C77.8241 14.8632 76.5848 5.06494 71.1241 1.92797C69.8655 1.19213 68.3938 0.843582 66.7866 0.843582V5.16176C67.6773 5.16176 68.3938 5.33604 68.9941 5.66523C71.6276 7.17562 72.7701 12.9267 71.8793 20.3238C71.6663 22.144 71.3178 24.0611 70.8918 26.0168C67.0964 25.0874 62.9525 24.3709 58.5956 23.9062C55.9815 20.3238 53.2705 17.0706 50.5402 14.2241C56.8528 8.35683 62.7782 5.1424 66.806 5.1424V0.824219C61.4808 0.824219 54.5098 4.61957 47.4613 11.2033C40.4128 4.6583 33.4417 0.901675 28.1166 0.901675V5.21986C32.125 5.21986 38.0697 8.41492 44.3824 14.2435C41.6714 17.09 38.9605 20.3238 36.385 23.9062C32.0088 24.3709 27.8649 25.0874 24.0695 26.0362C23.6241 24.0998 23.2949 22.2215 23.0626 20.4206C22.1525 13.0236 23.2756 7.27245 25.8897 5.74269C26.4706 5.39413 27.2258 5.23922 28.1166 5.23922V0.921039C26.49 0.921039 25.0183 1.26959 23.7403 2.00543C18.299 5.1424 17.0791 14.9212 19.8869 27.198C7.84244 30.9159 0 36.8607 0 43.1347C0 49.428 7.88116 55.3921 19.9643 59.0906C17.1759 71.4062 18.4152 81.2044 23.8759 84.3413C25.1345 85.0772 26.6062 85.4257 28.2328 85.4257C33.5579 85.4257 40.5289 81.6304 47.5775 75.0466C54.626 81.5916 61.597 85.3483 66.9221 85.3483C68.5487 85.3483 70.0204 84.9997 71.2984 84.2639C76.7397 81.1269 77.9596 71.3481 75.1519 59.0713C87.1576 55.3727 95 49.4086 95 43.1347ZM69.788 30.2188C69.0715 32.7168 68.1808 35.2922 67.1739 37.8676C66.3799 36.3185 65.5473 34.7694 64.6372 33.2203C63.7464 31.6711 62.7976 30.1607 61.8488 28.6891C64.5985 29.0957 67.2513 29.5992 69.788 30.2188ZM60.9193 50.8415C59.4089 53.4557 57.8598 55.9343 56.2526 58.2386C53.3673 58.4903 50.4433 58.6259 47.5 58.6259C44.576 58.6259 41.6521 58.4903 38.7862 58.258C37.179 55.9536 35.6105 53.4944 34.1001 50.8996C32.6284 48.3629 31.2923 45.7875 30.0724 43.1927C31.2729 40.598 32.6284 38.0032 34.0807 35.4665C35.5911 32.8523 37.1402 30.3737 38.7475 28.0694C41.6327 27.8177 44.5567 27.6821 47.5 27.6821C50.424 27.6821 53.3479 27.8177 56.2138 28.0501C57.821 30.3544 59.3895 32.8136 60.8999 35.4084C62.3716 37.9451 63.7077 40.5205 64.9276 43.1153C63.7077 45.7101 62.3716 48.3048 60.9193 50.8415ZM67.1739 48.3242C68.2195 50.919 69.1103 53.5138 69.8461 56.0311C67.3094 56.6508 64.6372 57.1736 61.8681 57.5802C62.817 56.0892 63.7658 54.5594 64.6566 52.9909C65.5473 51.4418 66.3799 49.8733 67.1739 48.3242ZM47.5387 68.9856C45.7379 67.1267 43.937 65.0547 42.1555 62.7892C43.8983 62.8666 45.6798 62.9247 47.4806 62.9247C49.3009 62.9247 51.1017 62.886 52.8638 62.7892C51.1211 65.0547 49.3202 67.1267 47.5387 68.9856ZM33.1319 57.5802C30.3822 57.1736 27.7293 56.6701 25.1926 56.0505C25.9091 53.5525 26.7998 50.9771 27.8068 48.4017C28.6007 49.9508 29.4333 51.4999 30.3435 53.049C31.2536 54.5982 32.183 56.1086 33.1319 57.5802ZM47.4419 17.2837C49.2428 19.1426 51.0436 21.2146 52.8251 23.4801C51.0823 23.4027 49.3009 23.3446 47.5 23.3446C45.6798 23.3446 43.8789 23.3833 42.1168 23.4801C43.8596 21.2146 45.6604 19.1426 47.4419 17.2837ZM33.1125 28.6891C32.1637 30.1801 31.2148 31.7099 30.3241 33.2784C29.4333 34.8275 28.6007 36.3766 27.8068 37.9257C26.7611 35.3309 25.8704 32.7362 25.1345 30.2188C27.6712 29.6186 30.3435 29.0957 33.1125 28.6891ZM15.5881 52.9329C8.73319 50.0089 4.29882 46.1748 4.29882 43.1347C4.29882 40.0945 8.73319 36.2411 15.5881 33.3364C17.2534 32.62 19.0736 31.981 20.9519 31.3807C22.0556 35.176 23.508 39.1263 25.3088 43.1734C23.5273 47.2011 22.0944 51.132 21.01 54.908C19.093 54.3077 17.2727 53.6493 15.5881 52.9329ZM26.0059 80.6041C23.3724 79.0937 22.2299 73.3426 23.1207 65.9455C23.3337 64.1253 23.6822 62.2082 24.1082 60.2525C27.9036 61.1819 32.0475 61.8984 36.4044 62.3631C39.0186 65.9455 41.7295 69.1987 44.4598 72.0452C38.1472 77.9125 32.2218 81.1269 28.194 81.1269C27.3227 81.1075 26.5868 80.9333 26.0059 80.6041ZM71.9374 65.8487C72.8475 73.2457 71.7244 78.9969 69.1103 80.5266C68.5294 80.8752 67.7742 81.0301 66.8834 81.0301C62.875 81.0301 56.9303 77.835 50.6176 72.0064C53.3286 69.1599 56.0396 65.9261 58.615 62.3438C62.9912 61.879 67.1351 61.1626 70.9305 60.2137C71.3759 62.1695 71.7244 64.0478 71.9374 65.8487ZM79.3926 52.9329C77.7273 53.6493 75.9071 54.2883 74.0287 54.8886C72.925 51.0933 71.4727 47.143 69.6718 43.0959C71.4533 39.0682 72.8863 35.1373 73.9707 31.3613C75.8877 31.9616 77.7079 32.62 79.4119 33.3364C86.2668 36.2604 90.7012 40.0945 90.7012 43.1347C90.6818 46.1748 86.2475 50.0283 79.3926 52.9329Z" fill="#61DAFB"/>
<path d="M47.4807 51.9841C52.3681 51.9841 56.3301 48.0221 56.3301 43.1348C56.3301 38.2474 52.3681 34.2854 47.4807 34.2854C42.5933 34.2854 38.6313 38.2474 38.6313 43.1348C38.6313 48.0221 42.5933 51.9841 47.4807 51.9841Z" fill="#61DAFB"/>
</svg>
