<svg width="85" height="85" viewBox="0 0 85 85" fill="none" xmlns="http://www.w3.org/2000/svg">
<g clip-path="url(#clip0_304_197)">
<path d="M0 42.5V0H85V85H0" fill="#007ACC"/>
<path d="M18.6362 42.6488V46.1125H29.6862V77.5625H37.5275V46.1125H48.5775V42.7125C48.5775 40.8 48.5775 39.2488 48.4925 39.2063C48.4925 39.1425 41.7562 39.1213 33.575 39.1213L18.7 39.185V42.67L18.6362 42.6488ZM68.2975 39.1C70.465 39.61 72.1225 40.5875 73.61 42.1388C74.3962 42.9888 75.565 44.4763 75.65 44.8588C75.65 44.9863 71.9737 47.4725 69.7425 48.8538C69.6575 48.9175 69.3175 48.5563 68.9775 48.0038C67.8725 46.4313 66.7462 45.7513 64.9825 45.6238C62.4325 45.4538 60.7325 46.7925 60.7325 49.0238C60.7325 49.7038 60.86 50.0863 61.115 50.6388C61.6887 51.8075 62.7512 52.5088 66.045 53.9538C72.1225 56.5675 74.7575 58.2888 76.3512 60.7538C78.1575 63.5163 78.5612 67.8513 77.35 71.1025C75.99 74.6513 72.675 77.0525 67.9362 77.8388C66.4487 78.0938 63.0487 78.0513 61.455 77.775C58.055 77.1375 54.8037 75.4375 52.8062 73.2488C52.02 72.3988 50.5112 70.125 50.5962 69.9763L51.4037 69.4663L54.5912 67.6175L56.9925 66.215L57.545 66.9588C58.2462 68.0638 59.8187 69.5513 60.7325 70.0613C63.495 71.485 67.1925 71.2938 69.02 69.6363C69.8062 68.9138 70.1462 68.1488 70.1462 67.0863C70.1462 66.1088 69.9975 65.6625 69.5087 64.9188C68.8287 63.9838 67.4687 63.2188 63.6437 61.5188C59.245 59.6488 57.375 58.4588 55.6325 56.6313C54.6337 55.5263 53.72 53.805 53.295 52.3813C52.9762 51.1488 52.87 48.1313 53.1675 46.92C54.0812 42.67 57.29 39.695 61.88 38.845C63.3675 38.5475 66.8737 38.675 68.34 39.0575L68.2975 39.1Z" fill="white"/>
</g>
<defs>
<clipPath id="clip0_304_197">
<rect width="85" height="85" fill="white"/>
</clipPath>
</defs>
</svg>
